<svg width="162" height="169" viewBox="0 0 162 169" fill="none" xmlns="http://www.w3.org/2000/svg">
<path d="M75.13 162.23H42.25C41.65 162.23 41.17 162.72 41.17 163.31V167.64C41.17 168.24 41.66 168.72 42.25 168.72H75.13C75.73 168.72 76.21 168.23 76.21 167.64V163.31C76.21 162.71 75.72 162.23 75.13 162.23Z" fill="#757575"/>
<path d="M45.06 157.65C50.23 156.6 54.63 153.77 58 149.34L71.65 156.29C72.18 156.56 72.84 156.35 73.11 155.82L75.07 151.96C75.34 151.43 75.13 150.78 74.6 150.5L61.31 143.73C62.61 140.88 63.3 138.31 63.61 136.9C63.74 136.29 63.33 135.7 62.72 135.6L56.92 134.71C56.36 134.62 55.83 134.98 55.7 135.53C55.38 136.89 54.63 139.47 53.17 142.09C50.69 146.54 47.26 149.16 42.97 149.88C42.4 149.98 42.01 150.48 42.06 151.05L42.51 155.73C42.63 156.99 43.82 157.9 45.06 157.65Z" fill="#757575"/>
<path d="M35.8 52.79H32.83V47.66C32.83 47.06 32.34 46.58 31.75 46.58H25.7C25.1 46.58 24.62 47.06 24.62 47.66V72.72C24.62 73.32 25.11 73.8 25.7 73.8H31.75C32.35 73.8 32.83 73.32 32.83 72.72V60.36H35.8C36.4 60.36 36.88 59.87 36.88 59.28V53.88C36.88 53.28 36.39 52.8 35.8 52.8" fill="#757575"/>
<path d="M32.88 77.09H12.45V72.31C12.45 71.71 11.96 71.23 11.37 71.23H5.31999C4.71999 71.23 4.23999 71.71 4.23999 72.31V82.19C4.23999 82.79 4.71999 83.27 5.31999 83.27H32.88C33.48 83.27 33.96 82.79 33.96 82.19V78.17C33.96 77.57 33.47 77.09 32.88 77.09Z" fill="#757575"/>
<path d="M22.28 67.5V64.62C22.28 64.02 21.79 63.54 21.2 63.54H18.7L19.49 57.6C19.57 57.01 19.15 56.46 18.56 56.38L13.51 55.71C12.92 55.63 12.37 56.05 12.29 56.64L11.38 63.53H10.31L10.07 54.4C13.72 54.23 17.89 53.96 21.29 53.51C21.89 53.43 22.31 52.87 22.21 52.27L21.71 49.01C21.62 48.43 21.08 48.02 20.5 48.1C14.39 48.9 5.36002 49.12 2.28002 49.17C1.69002 49.17 1.21002 49.67 1.22002 50.26L1.25002 53.56C1.25002 54.16 1.75002 54.64 2.35002 54.63C2.49002 54.63 2.65002 54.63 2.81002 54.63L3.04002 63.53H2.23002C1.63002 63.53 1.15002 64.01 1.15002 64.61V67.49C1.15002 68.09 1.64002 68.57 2.23002 68.57H21.19C21.79 68.57 22.27 68.09 22.27 67.49" fill="#757575"/>
<path d="M112.16 48.87H106.11C105.51 48.87 105.03 49.36 105.03 49.95V85.25C105.03 85.85 105.51 86.33 106.11 86.33H112.16C112.76 86.33 113.24 85.85 113.24 85.25V49.95C113.24 49.35 112.75 48.87 112.16 48.87Z" fill="#757575"/>
<path d="M100.98 51.66C94.56 52.49 85.03 52.69 81.85 52.73C81.26 52.73 80.78 53.22 80.78 53.82L80.8 58.19C80.8 58.79 81.29 59.27 81.89 59.27C83.42 59.25 86.41 59.2 89.85 59.05C88.68 63.57 86.03 70.58 80.6 72.75C80.08 72.96 79.79 73.51 79.93 74.04L81.4 79.35C81.56 79.95 82.2 80.29 82.78 80.08C86.43 78.8 89.24 76.41 91.39 73.63L97.55 78.43C98.02 78.79 98.69 78.71 99.06 78.24L101.73 74.81C102.09 74.34 102.01 73.67 101.54 73.3L94.75 68.01C96.42 64.42 97.33 60.88 97.81 58.56C99.23 58.44 100.62 58.3 101.89 58.13C102.49 58.05 102.91 57.49 102.82 56.9L102.17 52.58C102.08 52 101.55 51.59 100.96 51.67" fill="#757575"/>
<path d="M32.88 88.16H28.55C27.95 88.16 27.47 88.65 27.47 89.24V99.22H24.23V89.71C24.23 89.11 23.75 88.63 23.15 88.63H18.82C18.22 88.63 17.74 89.11 17.74 89.71V113.04C14.58 113.42 11.42 113.66 8.65001 113.82V98.01C10.57 97.82 12.51 97.59 14.23 97.31C14.83 97.21 15.23 96.64 15.11 96.04L14.31 91.75C14.2 91.18 13.66 90.79 13.08 90.88C9.73001 91.42 5.28001 91.77 2.21001 91.97C1.64001 92.01 1.20001 92.48 1.20001 93.05V118.28C1.20001 119.5 2.21001 120.48 3.43001 120.45C6.87001 120.35 12.21 120.1 17.73 119.47V123.27C17.73 123.87 18.22 124.35 18.81 124.35H23.14C23.74 124.35 24.22 123.86 24.22 123.27V105.02H27.46V124.53C27.46 125.13 27.95 125.61 28.54 125.61H32.87C33.47 125.61 33.95 125.13 33.95 124.53V89.23C33.95 88.63 33.46 88.15 32.87 88.15" fill="#757575"/>
<path d="M152.57 53.84H150.05V45.3C150.05 44.74 149.56 44.28 148.97 44.28H142.92C142.32 44.28 141.84 44.73 141.84 45.3V78.41C141.84 78.97 142.32 79.42 142.92 79.42H148.97C149.57 79.42 150.05 78.97 150.05 78.41V60.93H152.57C153.17 60.93 153.65 60.48 153.65 59.91V54.85C153.65 54.29 153.17 53.83 152.57 53.83" fill="#757575"/>
<path d="M137.75 54.82L132.52 55.27C131.9 55.32 131.46 55.88 131.54 56.49C131.72 57.76 131.78 59.29 131.78 61.02C131.78 66.35 131.14 69.75 128.65 69.75C126.16 69.75 125.52 66.35 125.52 61.02C125.52 55.69 126.16 52.29 128.65 52.29C130.21 52.2 132.4 52.06 134.73 51.85C135.33 51.8 135.77 51.27 135.71 50.68L135.33 46.38C135.28 45.78 134.75 45.34 134.15 45.4C132.08 45.58 130.11 45.71 128.64 45.8C121.13 45.8 117.91 52.49 117.91 61.02C117.91 69.55 121.13 76.24 128.64 76.24C136.15 76.24 139.37 69.55 139.37 61.02C139.37 59.14 139.21 57.35 138.89 55.7C138.78 55.15 138.28 54.78 137.73 54.83" fill="#757575"/>
<path d="M75.89 61.35H72.92V52.25C72.92 51.65 72.43 51.17 71.84 51.17H66.03C65.43 51.17 64.95 51.66 64.95 52.25V75.33C60.25 76.14 55.1 76.59 50.85 76.83V70.98H59.37C59.97 70.98 60.45 70.5 60.45 69.9V66.11C60.45 65.51 59.96 65.03 59.37 65.03H50.85V61.19C54 61.03 57.36 60.8 60.19 60.43C60.79 60.35 61.21 59.8 61.12 59.2L60.48 54.88C60.39 54.3 59.86 53.89 59.27 53.96C54.43 54.57 47.76 54.8 43.69 54.89C43.1 54.9 42.63 55.38 42.63 55.97V81.31C42.63 82.53 43.63 83.51 44.85 83.48C49.18 83.37 57.39 83.01 64.94 81.8V87.56C64.94 88.16 65.43 88.64 66.02 88.64H71.83C72.43 88.64 72.91 88.16 72.91 87.56V68.92H75.88C76.48 68.92 76.96 68.43 76.96 67.84V62.44C76.96 61.84 76.47 61.36 75.88 61.36" fill="#757575"/>
<path d="M113.72 139.2H110.75V130.1C110.75 129.5 110.26 129.02 109.67 129.02H103.86C103.26 129.02 102.78 129.51 102.78 130.1V153.18C98.08 153.99 92.93 154.44 88.68 154.68V148.83H97.2C97.8 148.83 98.28 148.35 98.28 147.75V143.96C98.28 143.36 97.79 142.88 97.2 142.88H88.68V139.04C91.83 138.88 95.19 138.65 98.02 138.28C98.62 138.2 99.04 137.65 98.95 137.05L98.31 132.73C98.22 132.15 97.69 131.74 97.1 131.81C92.26 132.42 85.59 132.65 81.52 132.74C80.93 132.75 80.46 133.23 80.46 133.82V159.16C80.46 160.38 81.46 161.36 82.68 161.33C87.01 161.22 95.22 160.86 102.77 159.65V165.41C102.77 166.01 103.26 166.49 103.85 166.49H109.66C110.26 166.49 110.74 166.01 110.74 165.41V146.77H113.71C114.31 146.77 114.79 146.28 114.79 145.69V140.29C114.79 139.69 114.3 139.21 113.71 139.21" fill="#757575"/>
<path d="M24.73 130.25H20.97C20.37 130.25 19.89 130.74 19.89 131.33V144.68H15.75L15.81 143.29C15.84 142.69 15.37 142.19 14.77 142.16L11.19 142.01C10.59 141.99 10.09 142.45 10.06 143.05L9.52001 156.04H8.41001L7.74001 139.92C10.78 139.68 14.23 139.33 17.08 138.87C17.68 138.77 18.07 138.2 17.96 137.6L17.16 133.31C17.05 132.73 16.5 132.35 15.92 132.44C10.94 133.25 3.72001 133.68 1.02001 133.82C0.430008 133.85 -0.0299919 134.35 -0.00999192 134.95L0.170008 139.31C0.190008 139.91 0.700008 140.38 1.30001 140.35C1.51001 140.34 1.74001 140.33 1.99001 140.31L2.64001 156.05H1.58001C0.980008 156.05 0.500008 156.53 0.500008 157.13V160.69C0.500008 161.29 0.980008 161.77 1.58001 161.77H16.67C17.27 161.77 17.75 161.28 17.75 160.69V157.13C17.75 156.53 17.27 156.05 16.67 156.05H15.25L15.48 150.49H19.86V164.88C19.86 165.48 20.35 165.96 20.94 165.96H24.7C25.3 165.96 25.78 165.48 25.78 164.88V131.34C25.78 130.74 25.29 130.26 24.7 130.26" fill="#757575"/>
<path d="M33.64 129.78H29.77C29.17 129.78 28.69 130.27 28.69 130.86V166.16C28.69 166.76 29.18 167.24 29.77 167.24H33.64C34.24 167.24 34.72 166.76 34.72 166.16V130.86C34.72 130.26 34.23 129.78 33.64 129.78Z" fill="#757575"/>
<path d="M75.14 111.35H71.07L72.18 96.67C72.28 95.34 71.16 94.23 69.83 94.35C60.71 95.18 48.19 95.12 44.37 95.08C43.75 95.08 43.25 95.59 43.28 96.22L43.5 100.62C43.53 101.19 44 101.64 44.57 101.65C47.41 101.68 55.58 101.72 63.59 101.32L62.83 111.35H42.25C41.65 111.35 41.17 111.84 41.17 112.43V116.57C41.17 117.17 41.66 117.65 42.25 117.65H54.23V129.13C54.23 129.73 54.72 130.21 55.31 130.21H61.62C62.22 130.21 62.7 129.73 62.7 129.13V117.65H75.12C75.72 117.65 76.2 117.17 76.2 116.57V112.43C76.2 111.83 75.71 111.35 75.12 111.35" fill="#757575"/>
<path d="M136.93 100.84L134.69 95.99C134.84 95.92 150.16 88.8 158.16 81.5L161.76 85.45C153.14 93.31 137.59 100.54 136.93 100.84Z" fill="#757575"/>
<path d="M83.69 105.72L83.39 100.38C83.56 100.37 100.42 99.37 110.54 95.52L112.44 100.52C101.54 104.67 84.42 105.68 83.69 105.72Z" fill="#757575"/>
<path d="M118.55 122.12C106.92 121.21 91.01 114.8 90.34 114.53L92.35 109.57C92.51 109.63 108.18 115.94 118.97 116.78" fill="#757575"/>
<path d="M134.99 111.8C124.97 111.8 114.58 110.07 114.03 109.97L114.92 104.7C115.09 104.73 131.75 107.51 142.47 106.01L143.21 111.31C140.65 111.67 137.83 111.81 134.99 111.81" fill="#757575"/>
<path d="M89.73 127.33C85.38 126.88 82.43 125.61 82.11 125.47L84.76 119.5L83.43 122.48L84.75 119.49C84.75 119.49 87.06 120.48 90.4 120.83" fill="#757575"/>
<path d="M124.12 98.91L119.72 94.08L121.92 96.5L119.71 94.1C119.71 94.1 121.55 92.38 123.2 89.46L128.88 92.69C126.72 96.49 124.38 98.68 124.12 98.92" fill="#757575"/>
<path d="M83.89 7.25999C74.98 7.25999 72.17 15.14 72.17 23.67C72.17 32.2 74.99 40.08 83.89 40.08C92.79 40.08 95.61 32.2 95.61 23.67C95.61 15.14 92.79 7.25999 83.89 7.25999ZM83.89 33.02C81.4 33.02 80.38 29 80.38 23.68C80.38 18.36 81.4 14.33 83.89 14.33C86.38 14.33 87.4 18.35 87.4 23.68C87.4 29.01 86.38 33.02 83.89 33.02Z" fill="#757575"/>
<path d="M122.06 29.35H109.29C112.85 23.84 123.14 22.32 123.14 13.91C123.14 11.52 122.26 4.27 110.92 4.27C107.92 4.27 104.18 5 100.94 5.82C100.36 5.97 100.01 6.55 100.15 7.13L101.42 12.29C101.56 12.86 102.13 13.21 102.7 13.09C105.56 12.46 108.7 11.93 110.91 11.93C112.79 11.93 114.92 12.18 114.92 13.92C114.92 15.45 111.32 17.88 108.95 19.49C104.69 22.37 99.87 26.03 99.87 33.44V35.35C99.87 35.95 100.35 36.43 100.95 36.43H122.05C122.65 36.43 123.13 35.95 123.13 35.35V30.45C123.13 29.85 122.64 29.37 122.05 29.37" fill="#757575"/>
<path d="M67.05 32.35H54.28C57.84 26.84 68.13 25.32 68.13 16.91C68.13 14.52 67.25 7.27 55.91 7.27C52.91 7.27 49.17 8 45.93 8.82C45.35 8.97 45 9.55 45.14 10.13L46.41 15.29C46.55 15.86 47.12 16.21 47.69 16.09C50.55 15.46 53.69 14.93 55.9 14.93C57.78 14.93 59.91 15.18 59.91 16.92C59.91 18.45 56.31 20.88 53.94 22.49C49.68 25.37 44.86 29.03 44.86 36.44V38.35C44.86 38.95 45.35 39.43 45.94 39.43H67.04C67.64 39.43 68.12 38.95 68.12 38.35V33.45C68.12 32.85 67.63 32.37 67.04 32.37" fill="#757575"/>
<path d="M137.56 12.03H136.3V7.2H148.54C149.15 7.2 149.64 6.71 149.64 6.1V1.1C149.64 0.49 149.15 0 148.54 0H129.04C128.43 0 127.94 0.49 127.94 1.1V18.12C127.94 18.73 128.43 19.22 129.04 19.22H137.56C140.82 19.22 143.27 21.13 143.27 23.1C143.27 24.57 142.29 25.8 139.19 25.8C136.6 25.8 132.25 24.38 128.66 22.92C127.93 22.63 127.14 23.16 127.14 23.94V28.61C127.14 29.55 127.73 30.38 128.62 30.69C132.02 31.9 135.98 32.99 139.19 32.99C145.38 32.99 151.64 29.46 151.64 21.85C151.64 16.96 147.94 12.02 137.56 12.02V12.03Z" fill="#757575"/>
</svg>
