<svg width="178" height="38" viewBox="0 0 178 38" fill="none" xmlns="http://www.w3.org/2000/svg">
<g clip-path="url(#clip0_632_77)">
<path d="M154.28 9.29H153.47C153.39 9.29 153.32 9.36 153.32 9.44V11.96C153.32 11.96 153.32 12.54 152.55 12.54C151.78 12.54 151.78 11.96 151.78 11.96V9.44C151.78 9.36 151.71 9.29 151.63 9.29H150.82C150.74 9.29 150.67 9.36 150.67 9.44V11.96C150.67 12.64 151.25 13.65 152.55 13.65C153.85 13.65 154.43 12.64 154.43 11.96V9.44C154.43 9.36 154.36 9.29 154.28 9.29Z" fill="white"/>
<path d="M148.92 10.21C149.2 10.21 149.56 10.28 149.77 10.33C149.86 10.35 149.95 10.28 149.95 10.19V9.5C149.95 9.43 149.91 9.38 149.84 9.36C149.64 9.31 149.18 9.21 148.61 9.21C146.64 9.21 146.25 10.74 146.25 11.43C146.25 12.12 146.64 13.65 148.61 13.65C148.61 13.65 149.2 13.65 149.76 13.44C149.87 13.4 149.95 13.29 149.95 13.17V11.58C149.95 11.5 149.88 11.43 149.8 11.43H148.99C148.91 11.43 148.84 11.5 148.84 11.58V12.64C148.77 12.64 148.69 12.65 148.61 12.65C148.19 12.65 147.36 12.27 147.36 11.43C147.36 10.59 147.84 10.21 148.92 10.21Z" fill="white"/>
<path d="M145.75 12.61H143.62V11.96C144.12 11.92 144.67 11.86 145.12 11.79C145.2 11.78 145.25 11.7 145.24 11.62L145.12 10.97C145.11 10.89 145.03 10.84 144.95 10.85C144.55 10.92 144.07 10.97 143.62 11V10.37C144.31 10.32 145.12 10.24 145.77 10.13C145.85 10.12 145.9 10.04 145.89 9.96L145.77 9.31C145.76 9.23 145.68 9.18 145.6 9.19C144.69 9.35 143.39 9.44 142.65 9.48C142.57 9.48 142.51 9.55 142.51 9.63V13.41C142.51 13.49 142.58 13.56 142.66 13.56H145.75C145.83 13.56 145.9 13.5 145.9 13.42V12.76C145.9 12.68 145.83 12.61 145.75 12.61Z" fill="white"/>
<path d="M164.01 12.61H161.88V11.96C162.38 11.92 162.93 11.86 163.38 11.79C163.46 11.78 163.51 11.7 163.5 11.62L163.38 10.97C163.37 10.89 163.29 10.84 163.21 10.85C162.81 10.92 162.33 10.97 161.88 11V10.37C162.57 10.32 163.38 10.24 164.03 10.13C164.11 10.12 164.16 10.04 164.15 9.96L164.03 9.31C164.02 9.23 163.94 9.18 163.86 9.19C162.95 9.35 161.65 9.44 160.92 9.48C160.84 9.48 160.78 9.55 160.78 9.63V13.41C160.78 13.49 160.85 13.56 160.93 13.56H164.02C164.1 13.56 164.17 13.5 164.17 13.42V12.76C164.17 12.68 164.1 12.61 164.02 12.61H164.01Z" fill="white"/>
<path d="M123.17 10.37C123.17 10.28 123.22 10.16 123.67 10.16C123.99 10.16 124.35 10.27 124.62 10.37C124.69 10.4 124.77 10.37 124.8 10.29L125.08 9.69C125.11 9.62 125.08 9.53 125 9.49C124.64 9.34 124.18 9.19 123.7 9.19C122.56 9.19 122.06 9.66 122.06 10.39C122.06 11.79 124.16 11.79 124.16 12.29C124.16 12.58 123.75 12.62 123.51 12.62C123.05 12.62 122.62 12.51 122.26 12.38C122.17 12.35 122.07 12.42 122.07 12.52V13.14C122.07 13.27 122.15 13.38 122.28 13.42C122.67 13.54 123.1 13.64 123.52 13.64C124.62 13.64 125.33 13.26 125.33 12.35C125.33 10.94 123.18 10.89 123.18 10.37H123.17Z" fill="white"/>
<path d="M126.93 9.29H126.12C126.037 9.29 125.97 9.35716 125.97 9.44V13.41C125.97 13.4928 126.037 13.56 126.12 13.56H126.93C127.013 13.56 127.08 13.4928 127.08 13.41V9.44C127.08 9.35716 127.013 9.29 126.93 9.29Z" fill="white"/>
<path d="M117.75 9.31C117.74 9.23 117.66 9.18 117.58 9.19C116.46 9.38 114.74 9.48 114.23 9.5C114.15 9.5 114.09 9.57 114.09 9.65L114.12 10.31C114.12 10.39 114.19 10.45 114.27 10.45C114.47 10.45 114.86 10.42 115.33 10.39V13.41C115.33 13.49 115.4 13.56 115.48 13.56H116.29C116.37 13.56 116.44 13.49 116.44 13.41V10.3C116.9 10.25 117.35 10.2 117.75 10.13C117.83 10.12 117.88 10.04 117.87 9.96L117.75 9.31Z" fill="white"/>
<path d="M109.13 13.36L107.74 9.43C107.71 9.34 107.63 9.28 107.53 9.28H106.53C106.44 9.28 106.35 9.34 106.32 9.43L104.93 13.36C104.9 13.45 104.97 13.55 105.07 13.55H105.75C105.88 13.55 105.99 13.47 106.03 13.35L106.18 12.92H107.89L108.04 13.35C108.08 13.47 108.19 13.55 108.32 13.55H109C109.1 13.55 109.17 13.45 109.14 13.36H109.13ZM106.45 12.13L107.04 10.38L107.63 12.13H106.45Z" fill="white"/>
<path d="M121.6 13.36L120.21 9.43C120.18 9.34 120.1 9.28 120 9.28H119C118.91 9.28 118.82 9.34 118.79 9.43L117.4 13.36C117.37 13.45 117.44 13.55 117.54 13.55H118.22C118.35 13.55 118.46 13.47 118.5 13.35L118.65 12.92H120.36L120.51 13.35C120.55 13.47 120.66 13.55 120.79 13.55H121.47C121.57 13.55 121.64 13.45 121.61 13.36H121.6ZM118.92 12.13L119.51 10.38L120.1 12.13H118.92Z" fill="white"/>
<path d="M172.11 9.31C172.1 9.23 172.02 9.18 171.94 9.19C170.82 9.38 169.1 9.48 168.59 9.5C168.51 9.5 168.45 9.57 168.45 9.65L168.48 10.31C168.48 10.39 168.55 10.45 168.63 10.45C168.83 10.45 169.22 10.42 169.69 10.39V13.41C169.69 13.49 169.76 13.56 169.84 13.56H170.65C170.73 13.56 170.8 13.49 170.8 13.41V10.3C171.26 10.25 171.71 10.2 172.11 10.13C172.19 10.12 172.24 10.04 172.23 9.96L172.11 9.31Z" fill="white"/>
<path d="M176.09 13.36L174.7 9.43C174.67 9.34 174.59 9.28 174.49 9.28H173.49C173.4 9.28 173.31 9.34 173.28 9.43L171.89 13.36C171.86 13.45 171.93 13.55 172.03 13.55H172.71C172.84 13.55 172.95 13.47 172.99 13.35L173.14 12.92H174.85L175 13.35C175.04 13.47 175.15 13.55 175.28 13.55H175.96C176.06 13.55 176.13 13.45 176.1 13.36H176.09ZM173.41 12.13L174 10.38L174.59 12.13H173.41Z" fill="white"/>
<path d="M131.72 13.36L130.33 9.43C130.3 9.34 130.22 9.28 130.12 9.28H129.12C129.03 9.28 128.94 9.34 128.91 9.43L127.52 13.36C127.49 13.45 127.56 13.55 127.66 13.55H128.34C128.47 13.55 128.58 13.47 128.62 13.35L128.77 12.92H130.48L130.63 13.35C130.67 13.47 130.78 13.55 130.91 13.55H131.59C131.69 13.55 131.76 13.45 131.73 13.36H131.72ZM129.04 12.13L129.63 10.38L130.22 12.13H129.04Z" fill="white"/>
<path d="M142.08 13.36L140.69 9.43C140.66 9.34 140.58 9.28 140.48 9.28H139.48C139.39 9.28 139.3 9.34 139.27 9.43L137.88 13.36C137.85 13.45 137.92 13.55 138.02 13.55H138.7C138.83 13.55 138.94 13.47 138.98 13.35L139.13 12.92H140.84L140.99 13.35C141.03 13.47 141.14 13.55 141.27 13.55H141.95C142.05 13.55 142.12 13.45 142.09 13.36H142.08ZM139.4 12.13L139.99 10.38L140.58 12.13H139.4Z" fill="white"/>
<path d="M104.86 9.31C104.85 9.23 104.77 9.18 104.69 9.19C103.8 9.34 102.53 9.43 101.8 9.48C101.72 9.48 101.66 9.55 101.66 9.63V13.42C101.66 13.5 101.73 13.57 101.81 13.57H102.62C102.7 13.57 102.77 13.5 102.77 13.42V12.14C103.33 12.1 104.03 12.04 104.58 11.94C104.66 11.93 104.71 11.85 104.7 11.77L104.58 11.12C104.57 11.04 104.49 10.99 104.41 11C103.92 11.08 103.29 11.14 102.77 11.18V10.37C103.45 10.32 104.24 10.24 104.86 10.13C104.94 10.12 104.99 10.04 104.98 9.96L104.86 9.31Z" fill="white"/>
<path d="M160.16 9.31C160.15 9.23 160.07 9.18 159.99 9.19C159.1 9.34 157.83 9.43 157.1 9.48C157.02 9.48 156.96 9.55 156.96 9.63V13.42C156.96 13.5 157.03 13.57 157.11 13.57H157.92C158 13.57 158.07 13.5 158.07 13.42V12.14C158.63 12.1 159.33 12.04 159.88 11.94C159.96 11.93 160.01 11.85 160 11.77L159.88 11.12C159.87 11.04 159.79 10.99 159.71 11C159.22 11.08 158.59 11.14 158.07 11.18V10.37C158.75 10.32 159.54 10.24 160.16 10.13C160.24 10.12 160.29 10.04 160.28 9.96L160.16 9.31Z" fill="white"/>
<path d="M137.68 10.7C137.66 10.63 137.59 10.58 137.52 10.59C137.27 10.63 136.99 10.66 136.71 10.7C136.62 10.71 136.56 10.8 136.59 10.89C136.64 11.04 136.67 11.22 136.67 11.43C136.67 12.24 136.23 12.6 135.83 12.6H135.19V10.4C135.94 10.35 136.9 10.26 137.64 10.13C137.72 10.12 137.77 10.04 137.76 9.96L137.64 9.31C137.63 9.23 137.55 9.18 137.47 9.19C136.41 9.37 134.83 9.47 134.22 9.5C134.14 9.5 134.08 9.57 134.08 9.65V13.42C134.08 13.5 134.15 13.57 134.23 13.57H135.83C136.36 13.57 136.84 13.44 137.2 13.06C137.58 12.66 137.78 12.09 137.78 11.43C137.78 11.17 137.75 10.93 137.69 10.7H137.68Z" fill="white"/>
<path d="M113.33 9.29H112.52C112.44 9.29 112.37 9.36 112.37 9.44V12.02L111.12 9.47C111.07 9.37 110.96 9.3 110.85 9.3H109.93C109.85 9.3 109.78 9.37 109.78 9.45V13.43C109.78 13.51 109.85 13.58 109.93 13.58H110.74C110.82 13.58 110.89 13.51 110.89 13.43V10.85L112.14 13.41C112.19 13.51 112.3 13.58 112.41 13.58H113.33C113.41 13.58 113.48 13.51 113.48 13.43V9.45C113.48 9.37 113.41 9.3 113.33 9.3V9.29Z" fill="white"/>
<path d="M165.94 10.37C165.94 10.28 165.99 10.16 166.44 10.16C166.76 10.16 167.12 10.27 167.39 10.37C167.46 10.4 167.54 10.37 167.57 10.29L167.85 9.69C167.88 9.62 167.85 9.53 167.77 9.49C167.41 9.34 166.95 9.19 166.47 9.19C165.33 9.19 164.83 9.66 164.83 10.39C164.83 11.79 166.93 11.79 166.93 12.29C166.93 12.58 166.52 12.62 166.28 12.62C165.82 12.62 165.39 12.51 165.03 12.38C164.94 12.35 164.84 12.42 164.84 12.52V13.14C164.84 13.27 164.92 13.38 165.05 13.42C165.44 13.54 165.87 13.64 166.29 13.64C167.39 13.64 168.1 13.26 168.1 12.35C168.1 10.94 165.95 10.89 165.95 10.37H165.94Z" fill="white"/>
<path d="M96.43 6.62L95.66 4.96C95.71 4.94 100.96 2.5 103.7 0L104.93 1.35C101.98 4.04 96.65 6.52 96.43 6.62Z" fill="white"/>
<path d="M78.2 8.29L78.1 6.46C78.16 6.46 83.93 6.11 87.4 4.79L88.05 6.5C84.32 7.92 78.45 8.27 78.21 8.28L78.2 8.29Z" fill="white"/>
<path d="M90.14 13.91C86.16 13.6 80.71 11.4 80.48 11.31L81.17 9.61C81.22 9.63 86.59 11.79 90.29 12.08L90.15 13.91H90.14Z" fill="white"/>
<path d="M95.77 10.38C92.34 10.38 88.78 9.79 88.59 9.75L88.9 7.94C88.96 7.94 94.66 8.9 98.33 8.39L98.58 10.2C97.7 10.32 96.74 10.37 95.76 10.37L95.77 10.38Z" fill="white"/>
<path d="M80.27 15.69C78.78 15.54 77.77 15.1 77.66 15.05L78.57 13.01C78.57 13.01 79.36 13.35 80.5 13.47L80.27 15.69Z" fill="white"/>
<path d="M92.05 5.96L90.54 4.31L91.29 5.14L90.53 4.32C90.53 4.32 91.16 3.73 91.73 2.73L93.67 3.84C92.93 5.14 92.13 5.89 92.04 5.97L92.05 5.96Z" fill="white"/>
<path d="M157.44 32.86H141.36C141.067 32.86 140.83 33.0973 140.83 33.39V35.51C140.83 35.8027 141.067 36.04 141.36 36.04H157.44C157.733 36.04 157.97 35.8027 157.97 35.51V33.39C157.97 33.0973 157.733 32.86 157.44 32.86Z" fill="white"/>
<path d="M142.73 30.62C145.26 30.11 147.41 28.72 149.06 26.55L155.74 29.95C156 30.08 156.32 29.98 156.45 29.72L157.41 27.83C157.54 27.57 157.44 27.25 157.18 27.12L150.68 23.81C151.32 22.41 151.65 21.16 151.81 20.47C151.88 20.17 151.67 19.88 151.37 19.83L148.53 19.39C148.26 19.35 148 19.52 147.93 19.79C147.77 20.45 147.41 21.72 146.69 23C145.48 25.18 143.8 26.46 141.7 26.81C141.42 26.86 141.23 27.1 141.26 27.38L141.48 29.67C141.54 30.29 142.12 30.73 142.73 30.61V30.62Z" fill="white"/>
<path d="M16.95 22.08H15.5V19.57C15.5 19.28 15.26 19.04 14.97 19.04H12.01C11.72 19.04 11.48 19.28 11.48 19.57V31.83C11.48 32.12 11.72 32.36 12.01 32.36H14.97C15.26 32.36 15.5 32.12 15.5 31.83V25.78H16.95C17.24 25.78 17.48 25.54 17.48 25.25V22.61C17.48 22.32 17.24 22.08 16.95 22.08Z" fill="white"/>
<path d="M15.52 33.96H5.52V31.62C5.52 31.33 5.28 31.09 4.99 31.09H2.03C1.74 31.09 1.5 31.33 1.5 31.62V36.45C1.5 36.74 1.74 36.98 2.03 36.98H15.51C15.8 36.98 16.04 36.74 16.04 36.45V34.48C16.04 34.19 15.8 33.95 15.51 33.95L15.52 33.96Z" fill="white"/>
<path d="M10.33 29.27V27.86C10.33 27.57 10.09 27.33 9.79999 27.33H8.57999L8.95999 24.43C8.99999 24.14 8.78999 23.87 8.49999 23.84L6.02999 23.51C5.73999 23.47 5.46999 23.68 5.43999 23.97L4.98999 27.34H4.46999L4.34999 22.88C6.13999 22.8 8.16999 22.67 9.83999 22.45C10.13 22.41 10.34 22.14 10.29 21.85L10.05 20.26C10.01 19.97 9.73999 19.78 9.45999 19.82C6.46999 20.21 2.04999 20.32 0.54999 20.34C0.25999 20.34 0.0299902 20.58 0.0299902 20.87V22.48C0.0399902 22.77 0.27999 23.01 0.57999 23.01C0.64999 23.01 0.72999 23.01 0.80999 23.01L0.91999 27.36H0.51999C0.22999 27.36 -0.0100098 27.6 -0.0100098 27.89V29.3C-0.0100098 29.59 0.22999 29.83 0.51999 29.83H9.78999C10.08 29.83 10.32 29.59 10.32 29.3L10.33 29.27Z" fill="white"/>
<path d="M55.79 19.04H52.83C52.5373 19.04 52.3 19.2773 52.3 19.57V36.84C52.3 37.1327 52.5373 37.37 52.83 37.37H55.79C56.0827 37.37 56.32 37.1327 56.32 36.84V19.57C56.32 19.2773 56.0827 19.04 55.79 19.04Z" fill="white"/>
<path d="M50.33 20.4C47.19 20.81 42.53 20.9 40.97 20.92C40.68 20.92 40.45 21.16 40.45 21.45V23.59C40.46 23.88 40.7 24.12 41 24.12C41.75 24.12 43.21 24.08 44.89 24.01C44.32 26.22 43.02 29.65 40.36 30.71C40.11 30.81 39.96 31.08 40.03 31.34L40.75 33.94C40.83 34.23 41.14 34.4 41.43 34.3C43.21 33.67 44.59 32.51 45.64 31.14L48.65 33.49C48.88 33.67 49.21 33.63 49.39 33.4L50.7 31.72C50.88 31.49 50.84 31.16 50.61 30.98L47.29 28.39C48.11 26.63 48.55 24.9 48.79 23.77C49.49 23.71 50.16 23.64 50.79 23.56C51.08 23.52 51.29 23.25 51.24 22.96L50.92 20.85C50.88 20.56 50.62 20.37 50.33 20.4Z" fill="white"/>
<path d="M96.74 19.04H94.62C94.33 19.04 94.09 19.28 94.09 19.57V24.45H92.5V19.8C92.5 19.51 92.26 19.27 91.97 19.27H89.85C89.56 19.27 89.32 19.51 89.32 19.8V31.21C87.77 31.39 86.23 31.51 84.88 31.59V23.85C85.82 23.76 86.77 23.65 87.61 23.51C87.9 23.46 88.1 23.18 88.04 22.89L87.65 20.79C87.6 20.51 87.33 20.32 87.05 20.36C85.41 20.62 83.24 20.8 81.73 20.89C81.45 20.91 81.24 21.14 81.24 21.42V33.76C81.24 34.36 81.73 34.84 82.33 34.82C84.01 34.77 86.62 34.65 89.33 34.34V36.2C89.33 36.49 89.57 36.73 89.86 36.73H91.98C92.27 36.73 92.51 36.49 92.51 36.2V27.27H94.1V36.82C94.1 37.11 94.34 37.35 94.63 37.35H96.75C97.04 37.35 97.28 37.11 97.28 36.82V19.55C97.28 19.26 97.04 19.02 96.75 19.02L96.74 19.04Z" fill="white"/>
<path d="M77.43 24.02H76.2V19.57C76.2 19.28 75.96 19.04 75.67 19.04H72.71C72.42 19.04 72.18 19.28 72.18 19.57V36.84C72.18 37.13 72.42 37.37 72.71 37.37H75.67C75.96 37.37 76.2 37.13 76.2 36.84V27.72H77.43C77.72 27.72 77.96 27.48 77.96 27.19V24.55C77.96 24.26 77.72 24.02 77.43 24.02Z" fill="white"/>
<path d="M70.18 24.19L67.62 24.41C67.32 24.44 67.1 24.71 67.14 25.01C67.23 25.63 67.26 26.38 67.26 27.22C67.26 29.83 66.95 31.49 65.73 31.49C64.51 31.49 64.2 29.83 64.2 27.22C64.2 24.61 64.51 22.95 65.73 22.95C66.49 22.91 67.56 22.84 68.7 22.74C68.99 22.71 69.21 22.46 69.18 22.17L69 20.07C68.97 19.78 68.72 19.56 68.43 19.59C67.42 19.68 66.46 19.74 65.73 19.79C62.06 19.79 60.48 23.06 60.48 27.24C60.48 31.42 62.06 34.69 65.73 34.69C69.4 34.69 70.98 31.42 70.98 27.24C70.98 26.32 70.9 25.44 70.74 24.64C70.69 24.37 70.44 24.19 70.17 24.21L70.18 24.19Z" fill="white"/>
<path d="M37.11 24.02H35.66V19.57C35.66 19.28 35.42 19.04 35.13 19.04H32.29C32 19.04 31.76 19.28 31.76 19.57V30.86C29.46 31.26 26.94 31.47 24.86 31.6V28.74H29.03C29.32 28.74 29.56 28.5 29.56 28.21V26.35C29.56 26.06 29.32 25.82 29.03 25.82H24.86V23.94C26.4 23.86 28.04 23.75 29.43 23.57C29.72 23.53 29.93 23.26 29.89 22.97L29.58 20.86C29.54 20.57 29.28 20.38 28.99 20.41C26.62 20.71 23.36 20.82 21.37 20.87C21.08 20.87 20.85 21.11 20.85 21.4V33.8C20.85 34.4 21.34 34.87 21.94 34.86C24.06 34.81 28.07 34.63 31.77 34.04V36.86C31.77 37.15 32.01 37.39 32.3 37.39H35.14C35.43 37.39 35.67 37.15 35.67 36.86V27.74H37.12C37.41 27.74 37.65 27.5 37.65 27.21V24.57C37.65 24.28 37.41 24.04 37.12 24.04L37.11 24.02Z" fill="white"/>
<path d="M176.97 24.02H175.52V19.57C175.52 19.28 175.28 19.04 174.99 19.04H172.15C171.86 19.04 171.62 19.28 171.62 19.57V30.86C169.32 31.26 166.8 31.47 164.72 31.6V28.74H168.89C169.18 28.74 169.42 28.5 169.42 28.21V26.35C169.42 26.06 169.18 25.82 168.89 25.82H164.72V23.94C166.26 23.86 167.9 23.75 169.29 23.57C169.58 23.53 169.79 23.26 169.75 22.97L169.44 20.86C169.4 20.57 169.14 20.38 168.85 20.41C166.48 20.71 163.22 20.82 161.23 20.87C160.94 20.87 160.71 21.11 160.71 21.4V33.8C160.71 34.4 161.2 34.87 161.8 34.86C163.92 34.81 167.93 34.63 171.63 34.04V36.86C171.63 37.15 171.87 37.39 172.16 37.39H175C175.29 37.39 175.53 37.15 175.53 36.86V27.74H176.98C177.27 27.74 177.51 27.5 177.51 27.21V24.57C177.51 24.28 177.27 24.04 176.98 24.04L176.97 24.02Z" fill="white"/>
<path d="M132.72 19.27H130.88C130.59 19.27 130.35 19.51 130.35 19.8V26.33H128.32L128.35 25.65C128.36 25.36 128.13 25.11 127.84 25.1L126.09 25.03C125.8 25.02 125.55 25.25 125.54 25.54L125.28 31.89H124.74L124.41 24.01C125.9 23.89 127.58 23.72 128.98 23.49C129.27 23.44 129.47 23.16 129.41 22.87L129.02 20.77C128.97 20.49 128.7 20.3 128.41 20.35C125.97 20.75 122.44 20.96 121.12 21.02C120.83 21.03 120.61 21.28 120.62 21.57L120.71 23.7C120.72 23.99 120.97 24.22 121.27 24.21C121.37 24.21 121.49 24.2 121.61 24.19L121.93 31.89H121.41C121.12 31.89 120.88 32.13 120.88 32.42V34.16C120.88 34.45 121.12 34.69 121.41 34.69H128.79C129.08 34.69 129.32 34.45 129.32 34.16V32.42C129.32 32.13 129.08 31.89 128.79 31.89H128.09L128.2 29.17H130.34V36.21C130.34 36.5 130.58 36.74 130.87 36.74H132.71C133 36.74 133.24 36.5 133.24 36.21V19.8C133.24 19.51 133 19.27 132.71 19.27H132.72Z" fill="white"/>
<path d="M137.08 19.04H135.19C134.897 19.04 134.66 19.2773 134.66 19.57V36.84C134.66 37.1327 134.897 37.37 135.19 37.37H137.08C137.373 37.37 137.61 37.1327 137.61 36.84V19.57C137.61 19.2773 137.373 19.04 137.08 19.04Z" fill="white"/>
<path d="M117.6 28.13H115.61L116.15 20.95C116.2 20.3 115.65 19.76 115 19.82C110.54 20.22 104.41 20.2 102.55 20.18C102.25 20.18 102 20.43 102.02 20.74L102.13 22.89C102.14 23.17 102.37 23.39 102.65 23.39C104.04 23.4 108.03 23.42 111.95 23.23L111.58 28.14H101.51C101.22 28.14 100.98 28.38 100.98 28.67V30.69C100.98 30.98 101.22 31.22 101.51 31.22H107.37V36.84C107.37 37.13 107.61 37.37 107.9 37.37H110.99C111.28 37.37 111.52 37.13 111.52 36.84V31.22H117.59C117.88 31.22 118.12 30.98 118.12 30.69V28.67C118.12 28.38 117.88 28.14 117.59 28.14L117.6 28.13Z" fill="white"/>
<path d="M39.64 7.28C40.18 7.28 40.87 7.42 41.28 7.52C41.46 7.56 41.62 7.43 41.62 7.25V5.93C41.62 5.8 41.53 5.69 41.41 5.66C41.02 5.56 40.13 5.36 39.04 5.36C35.24 5.36 34.49 8.31 34.49 9.64C34.49 10.97 35.25 13.92 39.04 13.92C39.04 13.92 40.18 13.92 41.25 13.52C41.47 13.44 41.62 13.23 41.62 12.99V9.92C41.62 9.76 41.49 9.64 41.34 9.64H39.77C39.61 9.64 39.49 9.77 39.49 9.92V11.97C39.35 11.98 39.2 11.99 39.05 11.99C38.23 11.99 36.63 11.26 36.63 9.64C36.63 8.02 37.56 7.29 39.64 7.29V7.28Z" fill="white"/>
<path d="M2.75999 7.6C2.75999 7.42 2.86999 7.2 3.72 7.2C4.33 7.2 5.03 7.42 5.54 7.61C5.68 7.66 5.83 7.6 5.9 7.46L6.43 6.3C6.5 6.16 6.43 5.99 6.28 5.92C5.59 5.62 4.68999 5.34 3.77999 5.34C1.57999 5.34 0.619995 6.24 0.619995 7.66C0.619995 10.37 4.67 10.36 4.67 11.32C4.67 11.88 3.89 11.95 3.41 11.95C2.53 11.95 1.7 11.74 0.999995 11.48C0.819995 11.41 0.629995 11.55 0.629995 11.75V12.94C0.629995 13.19 0.789995 13.4 1.03 13.48C1.77 13.71 2.61 13.9 3.42 13.9C5.54 13.9 6.91 13.16 6.91 11.42C6.91 8.69 2.75999 8.6 2.75999 7.59V7.6Z" fill="white"/>
<path d="M33.36 5.51H31.79C31.63 5.51 31.51 5.64 31.51 5.79V10.77L28.94 5.51H26.79C26.63 5.51 26.51 5.64 26.51 5.79V13.46C26.51 13.62 26.64 13.74 26.79 13.74H28.36C28.52 13.74 28.64 13.61 28.64 13.46V8.48L31.21 13.74H32.95H33.35C33.51 13.74 33.63 13.61 33.63 13.46V5.79C33.63 5.63 33.5 5.51 33.35 5.51H33.36Z" fill="white"/>
<path d="M24.8 5.51H23.23C23.0754 5.51 22.95 5.63536 22.95 5.79V13.46C22.95 13.6146 23.0754 13.74 23.23 13.74H24.8C24.9547 13.74 25.08 13.6146 25.08 13.46V5.79C25.08 5.63536 24.9547 5.51 24.8 5.51Z" fill="white"/>
<path d="M14.04 7.13C14.2 7.1 14.3 6.96 14.27 6.8L14.04 5.55C14.01 5.4 13.87 5.3 13.72 5.32C12 5.61 9.56001 5.79 8.14001 5.87C7.99001 5.87 7.88 6 7.88 6.15V7.72V13.45C7.88 13.61 8.01 13.73 8.16 13.73H9.73C9.89 13.73 10.01 13.6 10.01 13.45V11.47C10.3 11.45 10.62 11.42 10.94 11.4C12.3 11.26 14.2 10.75 14.2 8.25C14.2 8.15 14.2 8.05 14.19 7.96C13.54 8.07 12.81 8.17 12.07 8.25C12.07 8.83 11.86 9.46 10.95 9.56C10.63 9.59 10.32 9.61 10.02 9.64V7.59C11.33 7.49 12.85 7.34 14.06 7.13H14.04Z" fill="white"/>
<path d="M22.08 13.37L20.83 10.52C21.35 10.05 21.71 9.34 21.71 8.25C21.71 8.15 21.71 8.05 21.7 7.96C21.05 8.07 20.32 8.17 19.58 8.25C19.58 8.83 19.37 9.46 18.46 9.56C18.14 9.59 17.83 9.61 17.53 9.64V7.59C18.84 7.49 20.36 7.34 21.57 7.13C21.72 7.1 21.83 6.96 21.8 6.8L21.57 5.55C21.54 5.4 21.4 5.3 21.25 5.32C19.53 5.61 17.09 5.79 15.67 5.87C15.52 5.87 15.41 6 15.41 6.15V7.72V13.45C15.41 13.61 15.54 13.73 15.69 13.73H17.26C17.42 13.73 17.54 13.6 17.54 13.45V11.47C17.83 11.45 18.15 11.42 18.47 11.4C18.68 11.38 18.9 11.35 19.13 11.3L19.99 13.35C20.07 13.58 20.28 13.73 20.52 13.73H21.83C22.02 13.73 22.16 13.54 22.1 13.36L22.08 13.37Z" fill="white"/>
<path d="M55.34 5.35C53.02 5.35 52.29 7.4 52.29 9.63C52.29 11.86 53.02 13.91 55.34 13.91C57.66 13.91 58.39 11.86 58.39 9.63C58.39 7.4 57.66 5.35 55.34 5.35ZM55.34 12.06C54.69 12.06 54.43 11.01 54.43 9.62C54.43 8.23 54.7 7.18 55.34 7.18C55.98 7.18 56.25 8.23 56.25 9.62C56.25 11.01 55.98 12.06 55.34 12.06Z" fill="white"/>
<path d="M69.8 8.54H69.48V7.31H72.61C72.77 7.31 72.89 7.18 72.89 7.03V5.75C72.89 5.59 72.76 5.47 72.61 5.47H67.62C67.46 5.47 67.34 5.6 67.34 5.75V10.1C67.34 10.26 67.47 10.38 67.62 10.38H69.8C70.63 10.38 71.26 10.87 71.26 11.37C71.26 11.75 71.01 12.06 70.22 12.06C69.56 12.06 68.44 11.7 67.53 11.32C67.34 11.24 67.14 11.38 67.14 11.58V12.77C67.14 13.01 67.29 13.22 67.52 13.3C68.39 13.61 69.4 13.89 70.22 13.89C71.8 13.89 73.4 12.99 73.4 11.04C73.4 9.79 72.45 8.53 69.8 8.53V8.54Z" fill="white"/>
<path d="M50.92 11.89H47.59C48.52 10.45 51.2 10.06 51.2 7.87C51.2 7.25 50.97 5.36 48.02 5.36C47.24 5.36 46.26 5.55 45.42 5.76C45.27 5.8 45.18 5.95 45.22 6.1L45.55 7.44C45.59 7.59 45.73 7.68 45.88 7.65C46.63 7.49 47.44 7.35 48.02 7.35C48.51 7.35 49.06 7.41 49.06 7.87C49.06 8.27 48.12 8.9 47.5 9.32C46.39 10.07 45.13 11.02 45.13 12.96V13.46C45.13 13.62 45.26 13.74 45.41 13.74H50.91C51.07 13.74 51.19 13.61 51.19 13.46V12.18C51.19 12.02 51.06 11.9 50.91 11.9L50.92 11.89Z" fill="white"/>
<path d="M65.21 11.89H61.88C62.81 10.45 65.49 10.06 65.49 7.87C65.49 7.25 65.26 5.36 62.31 5.36C61.53 5.36 60.55 5.55 59.71 5.76C59.56 5.8 59.47 5.95 59.51 6.1L59.84 7.44C59.88 7.59 60.02 7.68 60.17 7.65C60.92 7.49 61.73 7.35 62.31 7.35C62.8 7.35 63.35 7.41 63.35 7.87C63.35 8.27 62.41 8.9 61.79 9.32C60.68 10.07 59.42 11.02 59.42 12.96V13.46C59.42 13.62 59.55 13.74 59.7 13.74H65.2C65.36 13.74 65.48 13.61 65.48 13.46V12.18C65.48 12.02 65.35 11.9 65.2 11.9L65.21 11.89Z" fill="white"/>
</g>
<defs>
<clipPath id="clip0_632_77">
<rect width="177.5" height="37.36" fill="white"/>
</clipPath>
</defs>
</svg>
