<svg xmlns="http://www.w3.org/2000/svg" width="51" height="51" viewBox="0 0 51 51">
  <g id="그룹_36107" data-name="그룹 36107" transform="translate(-1809.5 -689.5)">
    <rect id="사각형_12268" data-name="사각형 12268" width="50" height="50" rx="25" transform="translate(1810 690)" fill="#fff" stroke="#e4e4e4" stroke-width="1"/>
    <path id="Icon_awesome-instagram" data-name="Icon awesome-instagram" d="M11.9,8.037a6.1,6.1,0,1,0,6.1,6.1A6.093,6.093,0,0,0,11.9,8.037Zm0,10.071A3.968,3.968,0,1,1,15.87,14.14,3.975,3.975,0,0,1,11.9,18.107Zm7.776-10.32a1.424,1.424,0,1,1-1.424-1.423A1.42,1.42,0,0,1,19.678,7.787ZM23.72,9.232A7.044,7.044,0,0,0,21.8,4.244,7.091,7.091,0,0,0,16.81,2.321c-1.965-.112-7.856-.112-9.821,0A7.081,7.081,0,0,0,2,4.239,7.068,7.068,0,0,0,.078,9.226c-.112,1.965-.112,7.856,0,9.821A7.044,7.044,0,0,0,2,24.035a7.1,7.1,0,0,0,4.988,1.923c1.965.112,7.856.112,9.821,0A7.045,7.045,0,0,0,21.8,24.035a7.091,7.091,0,0,0,1.923-4.988c.112-1.965.112-7.85,0-9.816ZM21.181,21.156a4.017,4.017,0,0,1-2.263,2.263c-1.567.621-5.285.478-7.017.478s-5.455.138-7.017-.478a4.017,4.017,0,0,1-2.263-2.263C2,19.589,2.145,15.871,2.145,14.14s-.138-5.455.478-7.017A4.017,4.017,0,0,1,4.885,4.86c1.567-.621,5.285-.478,7.017-.478s5.455-.138,7.017.478a4.017,4.017,0,0,1,2.263,2.263c.621,1.567.478,5.285.478,7.017S21.8,19.595,21.181,21.156Z" transform="translate(1823.1 700.859)" fill="#1a1311"/>
  </g>
</svg>
