<svg xmlns="http://www.w3.org/2000/svg" width="51" height="51" viewBox="0 0 51 51">
  <g id="그룹_36105" data-name="그룹 36105" transform="translate(-1809.5 -809.5)">
    <rect id="사각형_12240" data-name="사각형 12240" width="50" height="50" rx="25" transform="translate(1810 810)" fill="#fff" stroke="#e4e4e4" stroke-width="1"/>
    <path id="Icon_awesome-youtube" data-name="Icon awesome-youtube" d="M24.362,7.472a3.222,3.222,0,0,0-2.1-2.4c-1.857-.568-9.3-.568-9.3-.568s-7.445,0-9.3.568a3.222,3.222,0,0,0-2.105,2.4,40.3,40.3,0,0,0-.5,6.544,40.3,40.3,0,0,0,.5,6.544,3.165,3.165,0,0,0,2.105,2.365c1.857.568,9.3.568,9.3.568s7.445,0,9.3-.568a3.165,3.165,0,0,0,2.1-2.365,40.3,40.3,0,0,0,.5-6.544A40.3,40.3,0,0,0,24.362,7.472ZM10.52,18.033V10l6.223,4.017L10.52,18.033Z" transform="translate(1822.044 820.977)" fill="#1a1311"/>
  </g>
</svg>
