<svg xmlns="http://www.w3.org/2000/svg" width="41.933" height="29.763" viewBox="0 0 41.933 29.763">
  <g id="그룹_52495" data-name="그룹 52495" transform="translate(-1057.815 -1929.239)">
    <path id="패스_77290" data-name="패스 77290" d="M19.921,10.6a13.418,13.418,0,1,1,7.7,17.344A13.418,13.418,0,0,1,19.921,10.6Z" transform="translate(1047.026 1929)" fill="none" stroke="#000" stroke-miterlimit="10" stroke-width="2"/>
    <path id="패스_77291" data-name="패스 77291" d="M33.669,18.128c5.23,4.09,5.336,7.108,4.938,8.142-.567,1.472-2.42,3.143-8.027,2.741a46.365,46.365,0,0,1-12.719-3.122A46.35,46.35,0,0,1,6.335,19.673C1.907,16.21,1.654,13.728,2.22,12.256s2.42-3.143,8.027-2.741a20.835,20.835,0,0,1,2.369.269" transform="translate(1059 1923.756)" fill="none" stroke="#000" stroke-miterlimit="10" stroke-width="2"/>
    <g id="패스_77292" data-name="패스 77292" transform="translate(982.325 1925.059)" fill="none" stroke-miterlimit="10">
      <path d="M115.423,7.366a1.185,1.185,0,1,1-1.186-1.186A1.186,1.186,0,0,1,115.423,7.366Z" stroke="none"/>
      <path d="M 114.2372894287109 8.550877571105957 C 114.8918914794922 8.550877571105957 115.4228820800781 8.020197868347168 115.4228820800781 7.365587711334229 C 115.4228820800781 6.710677623748779 114.8918914794922 6.179997444152832 114.2372894287109 6.179997444152832 C 113.5826950073242 6.179997444152832 113.052001953125 6.710677623748779 113.052001953125 7.365587711334229 C 113.052001953125 8.020197868347168 113.5826950073242 8.550877571105957 114.2372894287109 8.550877571105957 M 114.2372894287109 10.55087757110596 C 112.4809188842773 10.55087757110596 111.052001953125 9.121957778930664 111.052001953125 7.365587711334229 C 111.052001953125 5.609047412872314 112.4809188842773 4.179997444152832 114.2372894287109 4.179997444152832 C 115.9938354492188 4.179997444152832 117.4228820800781 5.609047412872314 117.4228820800781 7.365587711334229 C 117.4228820800781 9.121957778930664 115.9938354492188 10.55087757110596 114.2372894287109 10.55087757110596 Z" stroke="none" fill="#000"/>
    </g>
    <g id="패스_77293" data-name="패스 77293" transform="translate(1054.607 1883.041)" fill="none" stroke-miterlimit="10">
      <path d="M7.579,72.776a1.185,1.185,0,1,1-1.185-1.185A1.185,1.185,0,0,1,7.579,72.776Z" stroke="none"/>
      <path d="M 6.393588066101074 71.59100341796875 C 5.738977909088135 71.59100341796875 5.207997798919678 72.12168121337891 5.207997798919678 72.77629089355469 C 5.207997798919678 73.43090057373047 5.738977909088135 73.96157836914062 6.393588066101074 73.96157836914062 C 7.048197746276855 73.96157836914062 7.578877925872803 73.43090057373047 7.578877925872803 72.77629089355469 C 7.578877925872803 72.12168121337891 7.048197746276855 71.59100341796875 6.393588066101074 71.59100341796875 M 6.393588066101074 69.59100341796875 C 8.149957656860352 69.59100341796875 9.578878402709961 71.01992034912109 9.578878402709961 72.77629089355469 C 9.578878402709961 74.53266143798828 8.149957656860352 75.96157836914062 6.393588066101074 75.96157836914062 C 4.63704776763916 75.96157836914062 3.207998275756836 74.53266143798828 3.207998275756836 72.77629089355469 C 3.207998275756836 71.01992034912109 4.63704776763916 69.59100341796875 6.393588066101074 69.59100341796875 Z" stroke="none" fill="#000"/>
    </g>
  </g>
</svg>
