<svg xmlns="http://www.w3.org/2000/svg" width="20.952" height="16.715" viewBox="0 0 20.952 16.715">
  <g id="그룹_36703" data-name="그룹 36703" transform="translate(-30 -376.643)">
    <path id="Icon_awesome-youtube" data-name="Icon awesome-youtube" d="M21.564,7.115A2.835,2.835,0,0,0,19.712,5c-1.634-.5-8.186-.5-8.186-.5S4.974,4.5,3.34,5A2.835,2.835,0,0,0,1.488,7.115a35.461,35.461,0,0,0-.438,5.759,35.461,35.461,0,0,0,.438,5.759A2.785,2.785,0,0,0,3.34,20.715c1.634.5,8.186.5,8.186.5s6.552,0,8.186-.5a2.785,2.785,0,0,0,1.852-2.082A35.461,35.461,0,0,0,22,12.874,35.461,35.461,0,0,0,21.564,7.115ZM9.383,16.409V9.34l5.476,3.535L9.383,16.409Z" transform="translate(28.95 372.143)" fill="#1a1311"/>
  </g>
</svg>
