<svg xmlns="http://www.w3.org/2000/svg" width="17" height="17" viewBox="0 0 17 17">
  <path id="Icon_material-language" data-name="Icon material-language" d="M11.492,3A8.5,8.5,0,1,0,20,11.5,8.5,8.5,0,0,0,11.492,3Zm5.89,5.1H14.875A13.3,13.3,0,0,0,13.7,5.074,6.825,6.825,0,0,1,17.382,8.1ZM11.5,4.734A11.974,11.974,0,0,1,13.123,8.1H9.877A11.974,11.974,0,0,1,11.5,4.734ZM4.921,13.2a6.649,6.649,0,0,1,0-3.4H7.794a14.038,14.038,0,0,0-.119,1.7,14.038,14.038,0,0,0,.119,1.7Zm.7,1.7H8.125A13.3,13.3,0,0,0,9.3,17.926,6.789,6.789,0,0,1,5.618,14.9ZM8.125,8.1H5.618A6.789,6.789,0,0,1,9.3,5.074,13.3,13.3,0,0,0,8.125,8.1ZM11.5,18.266A11.974,11.974,0,0,1,9.877,14.9h3.247A11.974,11.974,0,0,1,11.5,18.266ZM13.489,13.2H9.511a12.506,12.506,0,0,1-.136-1.7,12.4,12.4,0,0,1,.136-1.7h3.978a12.4,12.4,0,0,1,.136,1.7A12.506,12.506,0,0,1,13.489,13.2Zm.212,4.726A13.3,13.3,0,0,0,14.875,14.9h2.507a6.825,6.825,0,0,1-3.68,3.026Zm1.5-4.726a14.038,14.038,0,0,0,.119-1.7,14.038,14.038,0,0,0-.119-1.7h2.873a6.649,6.649,0,0,1,0,3.4Z" transform="translate(-3 -3)"/>
</svg>
